<svg xmlns="http://www.w3.org/2000/svg" xmlns:xlink="http://www.w3.org/1999/xlink" width="364" zoomAndPan="magnify" viewBox="0 0 273 43.499998" height="58" preserveAspectRatio="xMidYMid meet" version="1.0"><defs><g/><clipPath id="7511728390"><path d="M 40 1.597656 L 43 1.597656 L 43 7 L 40 7 Z M 40 1.597656 " clip-rule="nonzero"/></clipPath><clipPath id="0c0ffead0c"><path d="M 51 15 L 56.273438 15 L 56.273438 18 L 51 18 Z M 51 15 " clip-rule="nonzero"/></clipPath><clipPath id="7c1acdd321"><path d="M 5.851562 7 L 56.273438 7 L 56.273438 41.636719 L 5.851562 41.636719 Z M 5.851562 7 " clip-rule="nonzero"/></clipPath></defs><g clip-path="url(#7511728390)"><path fill="#ffffff" d="M 42.710938 4.988281 L 42.710938 2.652344 C 42.710938 2.070312 42.242188 1.601562 41.664062 1.601562 C 41.085938 1.601562 40.617188 2.070312 40.617188 2.652344 L 40.617188 4.988281 C 40.617188 5.570312 41.085938 6.039062 41.664062 6.039062 C 42.242188 6.039062 42.710938 5.570312 42.710938 4.988281 Z M 42.710938 4.988281 " fill-opacity="1" fill-rule="nonzero"/></g><g clip-path="url(#0c0ffead0c)"><path fill="#ffffff" d="M 55.097656 15.039062 L 52.757812 15.039062 C 52.179688 15.039062 51.710938 15.507812 51.710938 16.085938 C 51.710938 16.664062 52.179688 17.132812 52.757812 17.132812 L 55.097656 17.132812 C 55.675781 17.132812 56.144531 16.664062 56.144531 16.085938 C 56.144531 15.507812 55.675781 15.039062 55.097656 15.039062 Z M 55.097656 15.039062 " fill-opacity="1" fill-rule="nonzero"/></g><path fill="#ffffff" d="M 36.117188 7.523438 C 36.292969 7.523438 36.476562 7.480469 36.640625 7.382812 C 37.140625 7.09375 37.3125 6.453125 37.023438 5.953125 L 35.855469 3.925781 C 35.5625 3.425781 34.925781 3.253906 34.421875 3.542969 C 33.921875 3.832031 33.75 4.472656 34.039062 4.972656 L 35.207031 7 C 35.402344 7.335938 35.753906 7.523438 36.117188 7.523438 Z M 36.117188 7.523438 " fill-opacity="1" fill-rule="nonzero"/><path fill="#ffffff" d="M 51.273438 11.585938 C 51.453125 11.585938 51.632812 11.539062 51.796875 11.445312 L 53.824219 10.277344 C 54.324219 9.984375 54.496094 9.34375 54.207031 8.84375 C 53.917969 8.34375 53.277344 8.171875 52.773438 8.460938 L 50.75 9.628906 C 50.25 9.917969 50.078125 10.558594 50.367188 11.0625 C 50.558594 11.398438 50.910156 11.585938 51.273438 11.585938 Z M 51.273438 11.585938 " fill-opacity="1" fill-rule="nonzero"/><path fill="#ffffff" d="M 47.210938 7.523438 C 47.574219 7.523438 47.925781 7.335938 48.117188 7 L 49.289062 4.972656 C 49.578125 4.472656 49.40625 3.832031 48.90625 3.542969 C 48.402344 3.253906 47.761719 3.425781 47.472656 3.925781 L 46.304688 5.953125 C 46.015625 6.453125 46.1875 7.09375 46.6875 7.382812 C 46.851562 7.480469 47.03125 7.523438 47.210938 7.523438 Z M 47.210938 7.523438 " fill-opacity="1" fill-rule="nonzero"/><path fill="#ffffff" d="M 50.75 22.539062 L 52.773438 23.710938 C 52.941406 23.804688 53.121094 23.851562 53.296875 23.851562 C 53.660156 23.851562 54.011719 23.664062 54.207031 23.328125 C 54.496094 22.824219 54.324219 22.183594 53.824219 21.894531 L 51.796875 20.726562 C 51.292969 20.4375 50.65625 20.609375 50.367188 21.109375 C 50.078125 21.609375 50.25 22.25 50.75 22.539062 Z M 50.75 22.539062 " fill-opacity="1" fill-rule="nonzero"/><path fill="#ffffff" d="M 31.53125 11.445312 C 31.695312 11.539062 31.875 11.585938 32.054688 11.585938 C 32.417969 11.585938 32.769531 11.398438 32.960938 11.0625 C 33.25 10.558594 33.078125 9.917969 32.578125 9.628906 L 30.554688 8.460938 C 30.050781 8.171875 29.410156 8.34375 29.121094 8.84375 C 28.832031 9.34375 29.003906 9.984375 29.503906 10.277344 Z M 31.53125 11.445312 " fill-opacity="1" fill-rule="nonzero"/><g clip-path="url(#7c1acdd321)"><path fill="#ffffff" d="M 47.199219 23.683594 C 47.089844 23.402344 46.96875 23.128906 46.835938 22.859375 C 48.933594 21.253906 50.203125 18.746094 50.203125 16.085938 C 50.203125 11.375 46.371094 7.546875 41.664062 7.546875 C 37.21875 7.546875 33.5625 10.960938 33.164062 15.300781 C 31.105469 13.296875 28.269531 12.109375 25.234375 12.109375 C 19.113281 12.109375 14.132812 16.84375 14.132812 22.660156 C 14.132812 23.011719 14.152344 23.367188 14.191406 23.726562 C 9.515625 24.195312 5.863281 27.96875 5.863281 32.539062 C 5.863281 37.425781 10.042969 41.398438 15.179688 41.398438 L 46.828125 41.398438 C 51.964844 41.398438 56.144531 37.425781 56.144531 32.539062 C 56.144531 27.769531 52.164062 23.867188 47.199219 23.683594 Z M 41.664062 9.640625 C 45.214844 9.640625 48.105469 12.53125 48.105469 16.085938 C 48.105469 18.023438 47.214844 19.859375 45.730469 21.074219 C 45.664062 20.988281 45.585938 20.917969 45.519531 20.835938 C 45.375 20.660156 45.230469 20.488281 45.074219 20.320312 C 44.945312 20.183594 44.816406 20.050781 44.679688 19.917969 C 44.558594 19.800781 44.429688 19.6875 44.300781 19.574219 C 43.742188 19.082031 43.136719 18.648438 42.488281 18.277344 C 42.359375 18.203125 42.234375 18.132812 42.101562 18.0625 C 41.910156 17.964844 41.71875 17.867188 41.519531 17.777344 C 41.363281 17.707031 41.207031 17.644531 41.050781 17.582031 C 40.863281 17.507812 40.679688 17.429688 40.492188 17.363281 C 40.167969 17.253906 39.839844 17.160156 39.507812 17.078125 C 39.347656 17.039062 39.1875 17.011719 39.023438 16.976562 C 38.800781 16.933594 38.574219 16.890625 38.34375 16.859375 C 38.179688 16.839844 38.015625 16.820312 37.851562 16.804688 C 37.601562 16.777344 37.347656 16.765625 37.09375 16.757812 C 36.988281 16.757812 36.882812 16.742188 36.773438 16.742188 C 36.746094 16.742188 36.714844 16.746094 36.6875 16.746094 C 36.222656 16.75 35.753906 16.789062 35.285156 16.851562 C 35.28125 16.851562 35.273438 16.851562 35.269531 16.851562 C 35.238281 16.59375 35.21875 16.339844 35.21875 16.085938 C 35.21875 12.53125 38.109375 9.640625 41.664062 9.640625 Z M 46.828125 39.304688 L 15.179688 39.304688 C 11.195312 39.304688 7.957031 36.269531 7.957031 32.539062 C 7.957031 28.808594 11.191406 25.777344 15.246094 25.777344 C 15.265625 25.777344 15.382812 25.78125 15.394531 25.78125 C 15.71875 25.792969 16.03125 25.652344 16.238281 25.398438 C 16.445312 25.144531 16.523438 24.8125 16.449219 24.496094 C 16.300781 23.875 16.226562 23.257812 16.226562 22.660156 C 16.226562 17.996094 20.269531 14.203125 25.234375 14.203125 C 28.558594 14.203125 31.597656 15.914062 33.175781 18.664062 C 33.410156 19.074219 33.890625 19.277344 34.347656 19.15625 C 34.449219 19.128906 34.546875 19.117188 34.648438 19.09375 C 34.65625 19.089844 34.667969 19.09375 34.679688 19.09375 C 35.023438 19.015625 35.347656 18.960938 35.664062 18.917969 C 35.742188 18.910156 35.820312 18.898438 35.902344 18.890625 C 36.09375 18.871094 36.28125 18.863281 36.46875 18.855469 C 36.632812 18.851562 36.796875 18.84375 36.957031 18.847656 C 37.199219 18.851562 37.433594 18.871094 37.671875 18.894531 C 37.859375 18.910156 38.046875 18.933594 38.230469 18.960938 C 38.472656 19 38.710938 19.042969 38.945312 19.097656 C 39.101562 19.136719 39.25 19.179688 39.402344 19.222656 C 39.582031 19.277344 39.761719 19.332031 39.9375 19.394531 C 40.089844 19.449219 40.242188 19.503906 40.390625 19.566406 C 40.585938 19.644531 40.769531 19.738281 40.957031 19.832031 C 41.167969 19.933594 41.375 20.046875 41.578125 20.167969 C 41.746094 20.269531 41.914062 20.371094 42.074219 20.480469 C 42.207031 20.570312 42.332031 20.667969 42.460938 20.765625 C 42.609375 20.882812 42.757812 21.003906 42.902344 21.128906 C 43.007812 21.222656 43.117188 21.3125 43.21875 21.414062 C 43.449219 21.632812 43.671875 21.867188 43.875 22.113281 C 43.917969 22.167969 43.957031 22.222656 44 22.277344 C 44.175781 22.5 44.34375 22.734375 44.496094 22.976562 C 44.902344 23.613281 45.230469 24.300781 45.445312 25.039062 C 45.582031 25.5 46.019531 25.808594 46.496094 25.789062 L 46.660156 25.777344 C 46.714844 25.777344 46.769531 25.769531 46.828125 25.769531 C 50.8125 25.769531 54.050781 28.808594 54.050781 32.539062 C 54.050781 36.269531 50.8125 39.304688 46.828125 39.304688 Z M 46.828125 39.304688 " fill-opacity="1" fill-rule="nonzero"/></g><g fill="#ffffff" fill-opacity="1"><g transform="translate(220.978982, 41.787548)"><g><path d="M 3.0625 0 L 3.0625 -25.453125 L 7.828125 -25.453125 L 7.828125 -14.265625 L 7.9375 -14.265625 L 19.03125 -25.453125 L 24.8125 -25.453125 L 11.375 -12.03125 L 11.59375 -14.296875 L 25.53125 0 L 19.53125 0 L 7.9375 -11.734375 L 7.828125 -11.734375 L 7.828125 0 Z M 3.0625 0 "/></g></g></g><g fill="#ffffff" fill-opacity="1"><g transform="translate(245.448283, 41.787548)"><g><path d="M 10.828125 0.359375 C 8.953125 0.359375 7.320312 -0.015625 5.9375 -0.765625 C 4.550781 -1.523438 3.476562 -2.601562 2.71875 -4 C 1.96875 -5.40625 1.59375 -7.046875 1.59375 -8.921875 C 1.59375 -10.816406 1.96875 -12.457031 2.71875 -13.84375 C 3.476562 -15.226562 4.550781 -16.300781 5.9375 -17.0625 C 7.320312 -17.820312 8.953125 -18.203125 10.828125 -18.203125 C 12.734375 -18.203125 14.367188 -17.820312 15.734375 -17.0625 C 17.109375 -16.300781 18.175781 -15.222656 18.9375 -13.828125 C 19.695312 -12.429688 20.078125 -10.796875 20.078125 -8.921875 C 20.078125 -7.046875 19.695312 -5.40625 18.9375 -4 C 18.175781 -2.601562 17.109375 -1.523438 15.734375 -0.765625 C 14.367188 -0.015625 12.734375 0.359375 10.828125 0.359375 Z M 10.828125 -3.328125 C 12.253906 -3.328125 13.375 -3.8125 14.1875 -4.78125 C 15.007812 -5.757812 15.421875 -7.148438 15.421875 -8.953125 C 15.421875 -10.753906 15.007812 -12.128906 14.1875 -13.078125 C 13.375 -14.035156 12.253906 -14.515625 10.828125 -14.515625 C 9.429688 -14.515625 8.316406 -14.035156 7.484375 -13.078125 C 6.660156 -12.128906 6.25 -10.753906 6.25 -8.953125 C 6.25 -7.148438 6.660156 -5.757812 7.484375 -4.78125 C 8.316406 -3.8125 9.429688 -3.328125 10.828125 -3.328125 Z M 10.828125 -3.328125 "/></g></g></g><g fill="#ffffff" fill-opacity="1"><g transform="translate(69.746538, 41.787548)"><g><path d="M 9.890625 0 L 1.375 -25.453125 L 4.578125 -25.453125 L 11.84375 -3.21875 L 11.046875 -3.21875 L 18.734375 -25.453125 L 21.234375 -25.453125 L 28.84375 -3.171875 L 28.171875 -3.171875 L 35.453125 -25.453125 L 38.5625 -25.453125 L 30 0 L 27.15625 0 L 19.75 -21.515625 L 20.1875 -21.515625 L 12.671875 0 Z M 9.890625 0 "/></g></g></g><g fill="#ffffff" fill-opacity="1"><g transform="translate(109.265785, 41.787548)"><g><path d="M 11.234375 0.328125 C 9.304688 0.328125 7.644531 -0.0351562 6.25 -0.765625 C 4.851562 -1.503906 3.78125 -2.5625 3.03125 -3.9375 C 2.28125 -5.3125 1.90625 -6.945312 1.90625 -8.84375 C 1.90625 -10.65625 2.257812 -12.242188 2.96875 -13.609375 C 3.6875 -14.984375 4.691406 -16.0625 5.984375 -16.84375 C 7.285156 -17.625 8.804688 -18.015625 10.546875 -18.015625 C 12.234375 -18.015625 13.660156 -17.65625 14.828125 -16.9375 C 15.992188 -16.21875 16.890625 -15.203125 17.515625 -13.890625 C 18.140625 -12.578125 18.453125 -11.003906 18.453125 -9.171875 L 18.453125 -8.09375 L 4.21875 -8.09375 L 4.21875 -10.1875 L 16.4375 -10.1875 L 15.8125 -9.609375 C 15.8125 -11.535156 15.363281 -13.03125 14.46875 -14.09375 C 13.582031 -15.164062 12.285156 -15.703125 10.578125 -15.703125 C 9.398438 -15.703125 8.382812 -15.429688 7.53125 -14.890625 C 6.675781 -14.347656 6.019531 -13.585938 5.5625 -12.609375 C 5.101562 -11.640625 4.875 -10.492188 4.875 -9.171875 L 4.875 -8.890625 C 4.875 -7.421875 5.117188 -6.191406 5.609375 -5.203125 C 6.109375 -4.210938 6.835938 -3.457031 7.796875 -2.9375 C 8.765625 -2.425781 9.921875 -2.171875 11.265625 -2.171875 C 12.273438 -2.171875 13.273438 -2.316406 14.265625 -2.609375 C 15.253906 -2.910156 16.191406 -3.425781 17.078125 -4.15625 L 18.125 -1.984375 C 17.257812 -1.234375 16.207031 -0.660156 14.96875 -0.265625 C 13.726562 0.128906 12.484375 0.328125 11.234375 0.328125 Z M 11.234375 0.328125 "/></g></g></g><g fill="#ffffff" fill-opacity="1"><g transform="translate(129.115438, 41.787548)"><g><path d="M 8.703125 0.328125 C 7.472656 0.328125 6.367188 0.09375 5.390625 -0.375 C 4.421875 -0.84375 3.648438 -1.484375 3.078125 -2.296875 C 2.515625 -3.117188 2.234375 -4.039062 2.234375 -5.0625 C 2.234375 -6.382812 2.585938 -7.429688 3.296875 -8.203125 C 4.015625 -8.972656 5.15625 -9.519531 6.71875 -9.84375 C 8.28125 -10.164062 10.347656 -10.328125 12.921875 -10.328125 L 15.015625 -10.328125 L 15.015625 -8.265625 L 13.03125 -8.265625 C 11.59375 -8.265625 10.378906 -8.21875 9.390625 -8.125 C 8.398438 -8.03125 7.601562 -7.867188 7 -7.640625 C 6.40625 -7.410156 5.972656 -7.101562 5.703125 -6.71875 C 5.441406 -6.332031 5.3125 -5.835938 5.3125 -5.234375 C 5.3125 -4.242188 5.671875 -3.457031 6.390625 -2.875 C 7.109375 -2.300781 8.0625 -2.015625 9.25 -2.015625 C 10.257812 -2.015625 11.15625 -2.25 11.9375 -2.71875 C 12.71875 -3.195312 13.34375 -3.832031 13.8125 -4.625 C 14.28125 -5.414062 14.515625 -6.304688 14.515625 -7.296875 L 14.515625 -11.40625 C 14.515625 -12.851562 14.164062 -13.90625 13.46875 -14.5625 C 12.769531 -15.226562 11.6875 -15.5625 10.21875 -15.5625 C 9.1875 -15.5625 8.15625 -15.410156 7.125 -15.109375 C 6.101562 -14.804688 5.050781 -14.320312 3.96875 -13.65625 L 2.96875 -15.890625 C 3.632812 -16.347656 4.382812 -16.734375 5.21875 -17.046875 C 6.050781 -17.359375 6.910156 -17.597656 7.796875 -17.765625 C 8.691406 -17.929688 9.5625 -18.015625 10.40625 -18.015625 C 11.9375 -18.015625 13.226562 -17.773438 14.28125 -17.296875 C 15.332031 -16.816406 16.132812 -16.070312 16.6875 -15.0625 C 17.238281 -14.050781 17.515625 -12.75 17.515625 -11.15625 L 17.515625 0 L 14.734375 0 L 14.734375 -4.015625 L 14.875 -4.015625 C 14.613281 -3.171875 14.195312 -2.421875 13.625 -1.765625 C 13.0625 -1.117188 12.363281 -0.609375 11.53125 -0.234375 C 10.707031 0.140625 9.765625 0.328125 8.703125 0.328125 Z M 8.703125 0.328125 "/></g></g></g><g fill="#ffffff" fill-opacity="1"><g transform="translate(149.145567, 41.787548)"><g><path d="M 10.25 0.328125 C 8.132812 0.328125 6.546875 -0.226562 5.484375 -1.34375 C 4.429688 -2.46875 3.90625 -4.066406 3.90625 -6.140625 L 3.90625 -15.234375 L 0.359375 -15.234375 L 0.359375 -17.6875 L 3.96875 -17.6875 L 3.96875 -23.03125 L 6.96875 -23.03125 L 6.96875 -17.6875 L 12.96875 -17.6875 L 12.96875 -15.234375 L 6.96875 -15.234375 L 6.96875 -6.421875 C 6.96875 -5.054688 7.257812 -4.03125 7.84375 -3.34375 C 8.4375 -2.65625 9.382812 -2.3125 10.6875 -2.3125 C 11.125 -2.3125 11.554688 -2.359375 11.984375 -2.453125 C 12.421875 -2.546875 12.820312 -2.664062 13.1875 -2.8125 L 13.71875 -0.4375 C 13.3125 -0.21875 12.785156 -0.0351562 12.140625 0.109375 C 11.503906 0.253906 10.875 0.328125 10.25 0.328125 Z M 10.25 0.328125 "/></g></g></g><g fill="#ffffff" fill-opacity="1"><g transform="translate(162.643219, 41.787548)"><g><path d="M 2.96875 0 L 2.96875 -25.453125 L 6 -25.453125 L 6 -13.859375 L 5.734375 -13.859375 C 6.265625 -15.191406 7.101562 -16.21875 8.25 -16.9375 C 9.394531 -17.65625 10.703125 -18.015625 12.171875 -18.015625 C 13.609375 -18.015625 14.800781 -17.753906 15.75 -17.234375 C 16.707031 -16.722656 17.425781 -15.941406 17.90625 -14.890625 C 18.382812 -13.847656 18.625 -12.546875 18.625 -10.984375 L 18.625 0 L 15.5625 0 L 15.5625 -10.796875 C 15.5625 -11.804688 15.421875 -12.660156 15.140625 -13.359375 C 14.867188 -14.054688 14.429688 -14.578125 13.828125 -14.921875 C 13.222656 -15.273438 12.441406 -15.453125 11.484375 -15.453125 C 10.398438 -15.453125 9.445312 -15.21875 8.625 -14.75 C 7.8125 -14.28125 7.175781 -13.632812 6.71875 -12.8125 C 6.257812 -12 6.03125 -11.0625 6.03125 -10 L 6.03125 0 Z M 2.96875 0 "/></g></g></g><g fill="#ffffff" fill-opacity="1"><g transform="translate(183.792162, 41.787548)"><g><path d="M 11.234375 0.328125 C 9.304688 0.328125 7.644531 -0.0351562 6.25 -0.765625 C 4.851562 -1.503906 3.78125 -2.5625 3.03125 -3.9375 C 2.28125 -5.3125 1.90625 -6.945312 1.90625 -8.84375 C 1.90625 -10.65625 2.257812 -12.242188 2.96875 -13.609375 C 3.6875 -14.984375 4.691406 -16.0625 5.984375 -16.84375 C 7.285156 -17.625 8.804688 -18.015625 10.546875 -18.015625 C 12.234375 -18.015625 13.660156 -17.65625 14.828125 -16.9375 C 15.992188 -16.21875 16.890625 -15.203125 17.515625 -13.890625 C 18.140625 -12.578125 18.453125 -11.003906 18.453125 -9.171875 L 18.453125 -8.09375 L 4.21875 -8.09375 L 4.21875 -10.1875 L 16.4375 -10.1875 L 15.8125 -9.609375 C 15.8125 -11.535156 15.363281 -13.03125 14.46875 -14.09375 C 13.582031 -15.164062 12.285156 -15.703125 10.578125 -15.703125 C 9.398438 -15.703125 8.382812 -15.429688 7.53125 -14.890625 C 6.675781 -14.347656 6.019531 -13.585938 5.5625 -12.609375 C 5.101562 -11.640625 4.875 -10.492188 4.875 -9.171875 L 4.875 -8.890625 C 4.875 -7.421875 5.117188 -6.191406 5.609375 -5.203125 C 6.109375 -4.210938 6.835938 -3.457031 7.796875 -2.9375 C 8.765625 -2.425781 9.921875 -2.171875 11.265625 -2.171875 C 12.273438 -2.171875 13.273438 -2.316406 14.265625 -2.609375 C 15.253906 -2.910156 16.191406 -3.425781 17.078125 -4.15625 L 18.125 -1.984375 C 17.257812 -1.234375 16.207031 -0.660156 14.96875 -0.265625 C 13.726562 0.128906 12.484375 0.328125 11.234375 0.328125 Z M 11.234375 0.328125 "/></g></g></g><g fill="#ffffff" fill-opacity="1"><g transform="translate(203.64182, 41.787548)"><g><path d="M 2.96875 0 L 2.96875 -17.6875 L 5.84375 -17.6875 L 5.84375 -13.578125 L 5.703125 -13.578125 C 6.109375 -14.953125 6.832031 -16.003906 7.875 -16.734375 C 8.925781 -17.472656 10.257812 -17.898438 11.875 -18.015625 L 13.21875 -18.125 L 13.5 -15.375 L 11.265625 -15.171875 C 9.609375 -15.023438 8.328125 -14.488281 7.421875 -13.5625 C 6.515625 -12.632812 6.0625 -11.425781 6.0625 -9.9375 L 6.0625 0 Z M 2.96875 0 "/></g></g></g></svg>